<svg width="90" height="90" viewBox="0 0 90 90" fill="none" xmlns="http://www.w3.org/2000/svg">
<circle cx="45" cy="45" r="44.875" fill="#2D3FDC" fill-opacity="0.2" stroke="black" stroke-width="0.25"/>
<path fill-rule="evenodd" clip-rule="evenodd" d="M44.9999 29.6779C49.1439 26.3059 54.0679 26.3179 57.9879 28.6019C62.1779 31.0439 65.1259 36.0019 64.9959 41.7859C64.8379 48.8259 59.4919 55.0539 50.3499 60.6339L48.9079 61.4959C48.5059 61.7339 48.0599 61.9879 47.6239 62.2079C46.8139 62.6199 45.9239 62.9999 44.9999 62.9999C44.0759 62.9999 43.1859 62.6199 42.3739 62.2079C42.0814 62.0583 41.7927 61.9016 41.5079 61.7379L40.3619 61.0619C30.7859 55.3739 25.1659 49.0039 25.0039 41.7859C24.8739 36.0019 27.8219 31.0459 32.0119 28.6019C35.9319 26.3199 40.8559 26.3039 44.9999 29.6779ZM34.0259 32.0599C31.1379 33.7439 28.9059 37.3179 29.0039 41.6999C29.1159 46.7219 33.0839 52.0879 42.4039 57.6259C43.0079 57.9839 43.6119 58.3519 44.1859 58.6439C44.8579 58.9839 45.1419 58.9839 45.8139 58.6439C46.1959 58.4499 46.5939 58.2199 46.9939 57.9839L47.5959 57.6239C52.2979 54.8319 55.6359 52.0839 57.8079 49.3979C55.5917 49.3609 53.4767 48.4637 51.9099 46.8959L49.5299 44.5159L48.0059 46.0399C46.4891 47.5566 44.4319 48.4087 42.2869 48.4087C40.1419 48.4087 38.0847 47.5566 36.5679 46.0399C36.0429 45.515 35.6265 44.8919 35.3424 44.2061C35.0583 43.5203 34.912 42.7852 34.912 42.0429C34.912 41.3005 35.0583 40.5655 35.3424 39.8797C35.6265 39.1939 36.0429 38.5707 36.5679 38.0459L42.1099 32.4999C39.3979 30.5079 36.4499 30.6499 34.0259 32.0599ZM47.0219 33.2199L46.6399 33.5919C46.5766 33.6787 46.5063 33.7603 46.4299 33.8359L39.3959 40.8759C39.0862 41.1857 38.9122 41.6058 38.9122 42.0439C38.9122 42.482 39.0862 42.9021 39.3959 43.2119C40.1625 43.9781 41.202 44.4086 42.2859 44.4086C43.3698 44.4086 44.4093 43.9781 45.1759 43.2119L46.9079 41.4799C47.2522 41.1355 47.661 40.8624 48.1109 40.6761C48.5608 40.4897 49.0429 40.3938 49.5299 40.3938C50.0168 40.3938 50.499 40.4897 50.9489 40.6761C51.3988 40.8624 51.8076 41.1355 52.1519 41.4799L54.7379 44.0679C55.4844 44.8144 56.4673 45.2781 57.5181 45.3796C58.569 45.481 59.6224 45.2138 60.4979 44.6239C60.8112 43.6372 60.9779 42.6619 60.9979 41.6979C61.0959 37.3179 58.8619 33.7439 55.9739 32.0619C53.2899 30.4979 49.9599 30.4939 47.0219 33.2199Z" fill="#2D3FDC"/>
</svg>
