<svg width="90" height="90" viewBox="0 0 90 90" fill="none" xmlns="http://www.w3.org/2000/svg">
<circle cx="45" cy="45" r="45" fill="#2D3FDC" fill-opacity="0.2"/>
<path d="M47 43.0004L57 33.0004M59 35.0004L55 31.0004L60 28.0004L62 30.0004L59 35.0004ZM29.05 38.9504C28.0898 37.991 27.4292 36.7732 27.1487 35.4452C26.8682 34.1171 26.9798 32.7362 27.47 31.4704L30.314 34.3144H34.314V30.3144L31.47 27.4704C32.7358 26.9791 34.1172 26.8665 35.4459 27.1464C36.7746 27.4264 37.9932 28.0867 38.9532 29.0469C39.9132 30.0071 40.5732 31.2259 40.8529 32.5546C41.1325 33.8833 41.0196 35.2647 40.528 36.5304L53.468 49.4724C54.7337 48.9808 56.1151 48.868 57.4438 49.1476C58.7726 49.4272 59.9913 50.0872 60.9515 51.0472C61.9118 52.0073 62.5721 53.2258 62.852 54.5545C63.1319 55.8832 63.0193 57.2646 62.528 58.5304L59.686 55.6864H55.686V59.6864L58.53 62.5304C57.2645 63.0217 55.8834 63.1345 54.555 62.8549C53.2266 62.5753 52.0081 61.9155 51.048 60.9558C50.0878 59.9961 49.4275 58.7779 49.1473 57.4496C48.8671 56.1213 48.9793 54.7401 49.47 53.4744L36.526 40.5304C35.2608 41.0198 33.8806 41.131 32.5534 40.8505C31.2262 40.57 30.009 39.9099 29.05 38.9504Z" stroke="#2D3FDC" stroke-width="2" stroke-linecap="round" stroke-linejoin="round"/>
<path d="M45.4059 50.0007L34.1979 61.2087C33.9471 61.46 33.6492 61.6593 33.3213 61.7953C32.9934 61.9313 32.6419 62.0014 32.2869 62.0014C31.9319 62.0014 31.5804 61.9313 31.2525 61.7953C30.9246 61.6593 30.6267 61.46 30.3759 61.2087L28.7919 59.6247C28.5406 59.3739 28.3413 59.0761 28.2053 58.7482C28.0693 58.4202 27.9993 58.0687 27.9993 57.7137C27.9993 57.3587 28.0693 57.0072 28.2053 56.6793C28.3413 56.3514 28.5406 56.0535 28.7919 55.8027L39.9999 44.5947" stroke="#2D3FDC" stroke-width="1.5" stroke-linecap="round" stroke-linejoin="round"/>
</svg>
