<svg width="90" height="90" viewBox="0 0 90 90" fill="none" xmlns="http://www.w3.org/2000/svg">
<circle cx="45" cy="45" r="45" fill="#2D3FDC" fill-opacity="0.2"/>
<path d="M44.9997 31.0001C45.002 30.2002 44.8444 29.4078 44.536 28.6697C44.2277 27.9316 43.7749 27.2626 43.2042 26.702C42.6335 26.1414 41.9565 25.7006 41.213 25.4056C40.4694 25.1105 39.6744 24.9671 38.8747 24.9837C38.0749 25.0004 37.2865 25.1768 36.5559 25.5026C35.8254 25.8284 35.1673 26.2971 34.6205 26.8809C34.0736 27.4648 33.6491 28.1521 33.3718 28.9024C33.0944 29.6527 32.97 30.451 33.0057 31.2501C31.8301 31.5524 30.7387 32.1182 29.8141 32.9047C28.8896 33.6912 28.1561 34.6778 27.6693 35.7898C27.1826 36.9017 26.9552 38.1099 27.0044 39.3227C27.0537 40.5356 27.3783 41.7213 27.9537 42.7901C26.942 43.612 26.1465 44.6686 25.6363 45.868C25.1262 47.0674 24.9168 48.3733 25.0264 49.6721C25.136 50.9709 25.5613 52.2232 26.2653 53.3201C26.9692 54.4171 27.9306 55.3254 29.0657 55.9661C28.9255 57.0506 29.0091 58.1523 29.3114 59.2031C29.6137 60.254 30.1283 61.2318 30.8232 62.076C31.5182 62.9202 32.3789 63.613 33.3521 64.1116C34.3253 64.6102 35.3904 64.904 36.4816 64.9748C37.5728 65.0456 38.6669 64.8919 39.6964 64.5233C40.7259 64.1547 41.6689 63.579 42.4672 62.8316C43.2654 62.0843 43.902 61.1812 44.3376 60.1782C44.7732 59.1752 44.9985 58.0936 44.9997 57.0001V31.0001Z" stroke="#2D3FDC" stroke-width="2" stroke-linecap="round" stroke-linejoin="round"/>
<path d="M45 31.0001C44.9977 30.2002 45.1553 29.4078 45.4636 28.6697C45.772 27.9316 46.2248 27.2626 46.7955 26.702C47.3662 26.1414 48.0432 25.7006 48.7867 25.4056C49.5302 25.1105 50.3253 24.9671 51.125 24.9837C51.9248 25.0004 52.7132 25.1768 53.4438 25.5026C54.1743 25.8284 54.8324 26.2971 55.3792 26.8809C55.9261 27.4648 56.3506 28.1521 56.6279 28.9024C56.9052 29.6527 57.0297 30.451 56.994 31.2501C58.1696 31.5524 59.261 32.1182 60.1856 32.9047C61.1101 33.6912 61.8436 34.6778 62.3303 35.7898C62.8171 36.9017 63.0445 38.1099 62.9953 39.3227C62.946 40.5356 62.6214 41.7213 62.046 42.7901C63.0577 43.612 63.8532 44.6686 64.3633 45.868C64.8735 47.0674 65.0829 48.3733 64.9733 49.6721C64.8637 50.9709 64.4384 52.2232 63.7344 53.3201C63.0304 54.4171 62.0691 55.3254 60.934 55.9661C61.0742 57.0506 60.9905 58.1523 60.6883 59.2031C60.386 60.254 59.8714 61.2318 59.1765 62.076C58.4815 62.9202 57.6208 63.613 56.6476 64.1116C55.6744 64.6102 54.6093 64.904 53.5181 64.9748C52.4269 65.0456 51.3327 64.8919 50.3033 64.5233C49.2738 64.1547 48.3308 63.579 47.5325 62.8316C46.7342 62.0843 46.0977 61.1812 45.6621 60.1782C45.2265 59.1752 45.0012 58.0936 45 57.0001V31.0001Z" stroke="#2D3FDC" stroke-width="2" stroke-linecap="round" stroke-linejoin="round"/>
<path d="M51.0001 47C49.321 46.4093 47.8547 45.334 46.7868 43.91C45.7188 42.486 45.097 40.7773 45.0001 39C44.9032 40.7773 44.2814 42.486 43.2134 43.91C42.1455 45.334 40.6792 46.4093 39.0001 47M56.1981 34C56.6821 33.1612 56.9559 32.2176 56.9961 31.25M33.0061 31.25C33.0457 32.2175 33.3188 33.161 33.8021 34M27.9541 42.792C28.32 42.494 28.7115 42.229 29.1241 42M60.8761 42C61.2887 42.229 61.6802 42.494 62.0461 42.792M33.0001 57C31.6218 57.0006 30.2666 56.6452 29.0661 55.968M60.9341 55.968C59.7336 56.6452 58.3784 57.0006 57.0001 57" stroke="#2D3FDC" stroke-width="2" stroke-linecap="round" stroke-linejoin="round"/>
</svg>
