<svg width="90" height="90" viewBox="0 0 90 90" fill="none" xmlns="http://www.w3.org/2000/svg">
<circle cx="45" cy="45" r="45" fill="#2D3FDC" fill-opacity="0.2"/>
<path d="M63 43V39H59V35C58.9968 33.9401 58.5744 32.9245 57.8249 32.1751C57.0755 31.4256 56.0599 31.0032 55 31H51V27H47V31H43V27H39V31H35C33.9401 31.0032 32.9245 31.4256 32.1751 32.1751C31.4256 32.9245 31.0032 33.9401 31 35V39H27V43H31V47H27V51H31V55C31.0032 56.0599 31.4256 57.0755 32.1751 57.8249C32.9245 58.5744 33.9401 58.9968 35 59H39V63H43V59H47V63H51V59H55C56.0599 58.9968 57.0755 58.5744 57.8249 57.8249C58.5744 57.0755 58.9968 56.0599 59 55V51H63V47H59V43H63ZM55 55H35V35H55V55Z" fill="#2D3FDC"/>
<path d="M43.722 37H41.032L37.012 53H39.066L39.994 49.25H44.626L45.53 53H47.654L43.722 37ZM40.264 47.648L42.3 38.9H42.392L44.358 47.648H40.264ZM49.488 37H51.488V53H49.488V37Z" fill="#2D3FDC"/>
</svg>
