<svg width="90" height="90" viewBox="0 0 90 90" fill="none" xmlns="http://www.w3.org/2000/svg">
<circle cx="45" cy="45" r="45" fill="#2D3FDC" fill-opacity="0.2"/>
<path d="M40.0896 25.0001C38.5891 25.0007 37.1363 25.5276 35.9844 26.4891C34.8324 27.4507 34.0543 28.7859 33.7856 30.2621L33.7096 30.6801L33.5136 30.7101C31.6983 30.9895 30.0429 31.9095 28.8471 33.3035C27.6512 34.6975 26.9937 36.4734 26.9936 38.3101V39.5001C26.9936 41.3361 27.7536 42.9921 28.9776 44.1741C27.5485 45.0333 26.4148 46.3073 25.7274 47.8265C25.0399 49.3457 24.8313 51.0382 25.1292 52.6789C25.427 54.3196 26.2173 55.8307 27.3949 57.0113C28.5725 58.1919 30.0816 58.9861 31.7216 59.2881L31.7496 59.2941C32.0857 60.6708 32.8059 61.9237 33.8263 62.907C34.8467 63.8903 36.1254 64.5637 37.5135 64.8486C38.9017 65.1336 40.3422 65.0185 41.6675 64.5167C42.9928 64.0149 44.1483 63.147 44.9996 62.0141C45.8509 63.147 47.0064 64.0149 48.3317 64.5167C49.6569 65.0185 51.0975 65.1336 52.4856 64.8486C53.8738 64.5637 55.1525 63.8903 56.1729 62.907C57.1933 61.9237 57.9134 60.6708 58.2496 59.2941L58.2776 59.2901C59.9183 58.9883 61.4283 58.194 62.6064 57.0128C63.7845 55.8316 64.5749 54.3196 64.8725 52.6781C65.17 51.0365 64.9605 49.3433 64.2718 47.8238C63.5832 46.3043 62.4481 45.0305 61.0176 44.1721C62.2396 42.9921 62.9996 41.3341 62.9996 39.5001V38.3101C62.9995 36.4734 62.342 34.6975 61.1461 33.3035C59.9502 31.9095 58.2949 30.9895 56.4796 30.7101L56.2836 30.6801L56.2076 30.2621C55.9897 29.0652 55.4358 27.9551 54.6104 27.0613C53.7851 26.1675 52.7225 25.5271 51.5467 25.2148C50.3709 24.9025 49.1305 24.9313 47.9705 25.2977C46.8104 25.6641 45.7786 26.3531 44.9956 27.2841C44.3943 26.5682 43.6434 25.9927 42.7959 25.5981C41.9483 25.2035 41.0245 24.9994 40.0896 25.0001ZM46.4996 52.0001V31.4101L46.4976 31.2401C46.54 30.405 46.8879 29.6147 47.4749 29.0193C48.0619 28.4238 48.8473 28.0649 49.6817 28.0106C50.5161 27.9562 51.3413 28.2104 52.0006 28.7247C52.6599 29.239 53.1072 29.9776 53.2576 30.8001L53.5236 32.2681C53.5795 32.5751 53.7297 32.8571 53.9534 33.0747C54.1771 33.2923 54.4631 33.4347 54.7716 33.4821L56.0236 33.6761C57.1304 33.8466 58.1397 34.4075 58.869 35.2575C59.5982 36.1074 59.9993 37.1902 59.9996 38.3101V39.5001C59.9996 40.4284 59.6308 41.3186 58.9744 41.975C58.3181 42.6314 57.4278 43.0001 56.4996 43.0001H55.8736C55.9562 42.6801 55.9982 42.3468 55.9996 42.0001C55.9992 41.2744 55.8015 40.5625 55.4275 39.9406C55.0535 39.3187 54.5174 38.8103 53.8766 38.4697C53.2357 38.1292 52.5144 37.9694 51.7897 38.0075C51.065 38.0456 50.3643 38.2801 49.7627 38.6859C49.1611 39.0917 48.6812 39.6536 48.3745 40.3112C48.0677 40.9689 47.9457 41.6976 48.0214 42.4193C48.0971 43.1411 48.3677 43.8286 48.8043 44.4083C49.2408 44.988 49.8268 45.438 50.4996 45.7101V49.5001C50.4996 50.8801 49.3796 52.0001 47.9996 52.0001H46.4996ZM53.4996 45.7101L53.5716 45.6781C53.836 45.8866 54.1629 46 54.4996 46.0001H56.7856C58.085 46.0016 59.337 46.4882 60.2964 47.3646C61.2557 48.241 61.8533 49.4441 61.9719 50.7381C62.0905 52.0321 61.7217 53.3237 60.9377 54.36C60.1537 55.3962 59.0111 56.1024 57.7336 56.3401L56.7276 56.5241C56.4368 56.5777 56.1683 56.716 55.9558 56.9216C55.7434 57.1273 55.5965 57.3912 55.5336 57.6801L55.3616 58.4741C55.1269 59.5553 54.5006 60.5115 53.6032 61.1586C52.7059 61.8058 51.6008 62.0982 50.5009 61.9795C49.4009 61.8609 48.3836 61.3395 47.6449 60.5159C46.9062 59.6922 46.4983 58.6245 46.4996 57.5181V55.0001H47.9996C49.4583 55.0001 50.8572 54.4206 51.8887 53.3892C52.9201 52.3577 53.4996 50.9588 53.4996 49.5001V45.7101ZM43.4956 31.2401L43.4936 31.4101V35.4001C43.4936 35.4468 43.4956 35.4928 43.4996 35.5381V37.0001H41.8736C41.6421 36.1025 41.1061 35.3131 40.3572 34.7669C39.6082 34.2207 38.6928 33.9516 37.7674 34.0056C36.8419 34.0595 35.964 34.4332 35.2836 35.0628C34.6032 35.6924 34.1626 36.5387 34.0371 37.4571C33.9116 38.3756 34.1089 39.3091 34.5954 40.0981C35.082 40.8872 35.8274 41.4828 36.7044 41.7831C37.5814 42.0834 38.5355 42.0697 39.4035 41.7445C40.2716 41.4193 40.9998 40.8027 41.4636 40.0001H43.4996V57.5181C43.4986 58.6229 43.0896 59.6884 42.3512 60.5101C41.6127 61.3318 40.5968 61.8518 39.4984 61.9703C38.4 62.0889 37.2965 61.7975 36.3998 61.1522C35.503 60.507 34.8762 59.5532 34.6396 58.4741L34.4656 57.6801C34.4026 57.3912 34.2557 57.1273 34.0433 56.9216C33.8309 56.716 33.5624 56.5777 33.2716 56.5241L32.2656 56.3401C30.984 56.1072 29.8361 55.4029 29.0479 54.3659C28.2597 53.3289 27.8884 52.0344 28.0071 50.7372C28.1258 49.4401 28.7258 48.2344 29.6891 47.3577C30.6524 46.4809 31.909 45.9966 33.2116 46.0001H35.4996C35.7648 46.0001 36.0191 46.1055 36.2067 46.293C36.3942 46.4805 36.4996 46.7349 36.4996 47.0001V48.2901C35.639 48.6382 34.9264 49.2748 34.4837 50.0907C34.041 50.9066 33.8959 51.8511 34.0732 52.7623C34.2505 53.6735 34.7392 54.4946 35.4556 55.085C36.1719 55.6754 37.0713 55.9982 37.9996 55.9982C38.9278 55.9982 39.8272 55.6754 40.5436 55.085C41.2599 54.4946 41.7486 53.6735 41.9259 52.7623C42.1032 51.8511 41.9581 50.9066 41.5154 50.0907C41.0728 49.2748 40.3601 48.6382 39.4996 48.2901V47.0001C39.4996 45.9392 39.0781 44.9218 38.328 44.1717C37.5778 43.4215 36.5604 43.0001 35.4996 43.0001H33.4936C32.5653 43.0001 31.6751 42.6314 31.0187 41.975C30.3623 41.3186 29.9936 40.4284 29.9936 39.5001V38.3101C29.9936 35.9961 31.6816 34.0281 33.9696 33.6761L35.2216 33.4821C35.53 33.4347 35.816 33.2923 36.0397 33.0747C36.2634 32.8571 36.4137 32.5751 36.4696 32.2681L36.7356 30.8001C36.8859 29.9776 37.3333 29.239 37.9925 28.7247C38.6518 28.2104 39.4771 27.9562 40.3115 28.0106C41.1458 28.0649 41.9312 28.4238 42.5182 29.0193C43.1053 29.6147 43.4531 30.405 43.4956 31.2401ZM37.9996 37.0001C38.2648 37.0001 38.5191 37.1055 38.7067 37.293C38.8942 37.4805 38.9996 37.7349 38.9996 38.0001C38.9996 38.2653 38.8942 38.5197 38.7067 38.7072C38.5191 38.8947 38.2648 39.0001 37.9996 39.0001C37.7344 39.0001 37.48 38.8947 37.2925 38.7072C37.1049 38.5197 36.9996 38.2653 36.9996 38.0001C36.9996 37.7349 37.1049 37.4805 37.2925 37.293C37.48 37.1055 37.7344 37.0001 37.9996 37.0001ZM36.9996 52.0001C36.9996 51.7349 37.1049 51.4805 37.2925 51.293C37.48 51.1055 37.7344 51.0001 37.9996 51.0001C38.2648 51.0001 38.5191 51.1055 38.7067 51.293C38.8942 51.4805 38.9996 51.7349 38.9996 52.0001C38.9996 52.2653 38.8942 52.5197 38.7067 52.7072C38.5191 52.8948 38.2648 53.0001 37.9996 53.0001C37.7344 53.0001 37.48 52.8948 37.2925 52.7072C37.1049 52.5197 36.9996 52.2653 36.9996 52.0001ZM51.9996 41.0001C52.2648 41.0001 52.5191 41.1055 52.7067 41.293C52.8942 41.4805 52.9996 41.7349 52.9996 42.0001C52.9996 42.2653 52.8942 42.5197 52.7067 42.7072C52.5191 42.8948 52.2648 43.0001 51.9996 43.0001C51.7344 43.0001 51.48 42.8948 51.2925 42.7072C51.1049 42.5197 50.9996 42.2653 50.9996 42.0001C50.9996 41.7349 51.1049 41.4805 51.2925 41.293C51.48 41.1055 51.7344 41.0001 51.9996 41.0001Z" fill="#2D3FDC"/>
</svg>
