<svg width="76" height="76" viewBox="0 0 76 76" fill="none" xmlns="http://www.w3.org/2000/svg">
<circle cx="38" cy="38" r="38" fill="#2D3FDC"/>
<path d="M32.1694 14.2501C30.3876 14.2508 28.6624 14.8765 27.2945 16.0183C25.9265 17.1602 25.0025 18.7457 24.6834 20.4988L24.5932 20.9951L24.3604 21.0308C22.2048 21.3626 20.239 22.455 18.8189 24.1104C17.3988 25.7657 16.618 27.8747 16.6179 30.0557V31.4689C16.6179 33.6491 17.5204 35.6156 18.9739 37.0193C17.2769 38.0396 15.9307 39.5524 15.1143 41.3565C14.298 43.1605 14.0502 45.1704 14.4039 47.1187C14.7577 49.067 15.6961 50.8615 17.0945 52.2634C18.4929 53.6654 20.285 54.6084 22.2324 54.9671L22.2657 54.9743C22.6648 56.609 23.52 58.0969 24.7317 59.2646C25.9435 60.4323 27.4619 61.2318 29.1103 61.5702C30.7588 61.9086 32.4694 61.7719 34.0432 61.176C35.6169 60.5802 36.9891 59.5496 38 58.2043C39.0109 59.5496 40.3831 60.5802 41.9569 61.176C43.5307 61.7719 45.2413 61.9086 46.8897 61.5702C48.5382 61.2318 50.0566 60.4323 51.2683 59.2646C52.4801 58.0969 53.3353 56.609 53.7344 54.9743L53.7677 54.9695C55.7161 54.6111 57.5091 53.6679 58.9081 52.2652C60.3072 50.8625 61.2458 49.067 61.5991 47.1177C61.9524 45.1684 61.7036 43.1577 60.8858 41.3532C60.0681 39.5488 58.7201 38.0362 57.0214 37.0169C58.4725 35.6156 59.375 33.6468 59.375 31.4689V30.0557C59.3749 27.8747 58.5942 25.7657 57.174 24.1104C55.7539 22.455 53.7882 21.3626 51.6325 21.0308L51.3998 20.9951L51.3095 20.4988C51.0508 19.0775 50.393 17.7591 49.4129 16.6978C48.4328 15.6365 47.171 14.8759 45.7747 14.5051C44.3785 14.1342 42.9056 14.1684 41.528 14.6035C40.1504 15.0386 38.9252 15.8568 37.9953 16.9624C37.2813 16.1122 36.3896 15.4288 35.3831 14.9602C34.3766 14.4916 33.2797 14.2492 32.1694 14.2501ZM39.7813 46.3126V21.862L39.7789 21.6601C39.8294 20.6685 40.2424 19.7299 40.9395 19.0229C41.6366 18.3158 42.5692 17.8895 43.56 17.825C44.5509 17.7605 45.5309 18.0623 46.3137 18.6731C47.0966 19.2838 47.6278 20.1609 47.8064 21.1376L48.1223 22.8809C48.1886 23.2455 48.3671 23.5803 48.6327 23.8387C48.8984 24.0971 49.238 24.2662 49.6043 24.3225L51.091 24.5529C52.4054 24.7553 53.604 25.4214 54.4699 26.4307C55.3359 27.44 55.8122 28.7259 55.8125 30.0557V31.4689C55.8125 32.5712 55.3746 33.6283 54.5952 34.4078C53.8158 35.1872 52.7586 35.6251 51.6563 35.6251H50.9129C51.0111 35.2451 51.061 34.8493 51.0625 34.4376C51.0621 33.5759 50.8273 32.7305 50.3832 31.992C49.9391 31.2535 49.3025 30.6497 48.5415 30.2453C47.7805 29.8409 46.9238 29.6512 46.0633 29.6964C45.2027 29.7416 44.3707 30.0201 43.6563 30.502C42.9419 30.9839 42.372 31.6511 42.0077 32.4321C41.6435 33.213 41.4986 34.0784 41.5885 34.9355C41.6784 35.7925 41.9997 36.6089 42.5181 37.2973C43.0365 37.9857 43.7324 38.5201 44.5313 38.8433V43.3439C44.5313 44.9826 43.2013 46.3126 41.5625 46.3126H39.7813ZM48.0938 38.8433L48.1793 38.8053C48.4933 39.0528 48.8814 39.1875 49.2813 39.1876H51.9959C53.539 39.1894 55.0258 39.7672 56.165 40.808C57.3042 41.8487 58.0138 43.2773 58.1547 44.814C58.2956 46.3506 57.8576 47.8844 56.9266 49.115C55.9956 50.3455 54.6387 51.1841 53.1217 51.4664L51.927 51.6849C51.5817 51.7485 51.2629 51.9127 51.0106 52.1569C50.7583 52.4012 50.5839 52.7145 50.5092 53.0576L50.3049 54.0005C50.0262 55.2844 49.2825 56.4199 48.2169 57.1884C47.1513 57.9569 45.8391 58.3041 44.5328 58.1632C43.2266 58.0223 42.0186 57.4032 41.1414 56.4251C40.2642 55.447 39.7797 54.1791 39.7813 52.8653V49.8751H41.5625C43.2947 49.8751 44.956 49.187 46.1808 47.9622C47.4057 46.7373 48.0938 45.0761 48.0938 43.3439V38.8433ZM36.214 21.6601L36.2117 21.862V26.6001C36.2117 26.6555 36.214 26.7102 36.2188 26.764V28.5001H34.2879C34.0131 27.4342 33.3766 26.4968 32.4872 25.8482C31.5978 25.1996 30.5107 24.88 29.4118 24.9441C28.3129 25.0082 27.2703 25.452 26.4623 26.1996C25.6544 26.9472 25.1311 27.9522 24.9821 29.0428C24.833 30.1335 25.0674 31.2421 25.6451 32.1791C26.2229 33.116 27.1081 33.8233 28.1496 34.1799C29.191 34.5365 30.3239 34.5203 31.3548 34.1341C32.3856 33.7479 33.2503 33.0157 33.801 32.0626H36.2188V52.8653C36.2176 54.1772 35.732 55.4424 34.8551 56.4182C33.9782 57.394 32.7717 58.0115 31.4674 58.1523C30.163 58.293 28.8527 57.947 27.7878 57.1808C26.7229 56.4145 25.9785 55.282 25.6975 54.0005L25.4909 53.0576C25.4162 52.7145 25.2417 52.4012 24.9895 52.1569C24.7372 51.9127 24.4184 51.7485 24.073 51.6849L22.8784 51.4664C21.3566 51.1898 19.9934 50.3535 19.0575 49.122C18.1215 47.8906 17.6806 46.3533 17.8215 44.813C17.9624 43.2726 18.675 41.8409 19.8189 40.7997C20.9627 39.7586 22.455 39.1834 24.0018 39.1876H26.7188C27.0337 39.1876 27.3358 39.3127 27.5585 39.5354C27.7812 39.7581 27.9063 40.0602 27.9063 40.3751V41.907C26.8844 42.3204 26.0381 43.0763 25.5124 44.0452C24.9868 45.0141 24.8144 46.1357 25.025 47.2177C25.2356 48.2997 25.8159 49.2748 26.6666 49.9759C27.5172 50.677 28.5852 51.0604 29.6875 51.0604C30.7899 51.0604 31.8579 50.677 32.7085 49.9759C33.5592 49.2748 34.1395 48.2997 34.3501 47.2177C34.5606 46.1357 34.3883 45.0141 33.8626 44.0452C33.337 43.0763 32.4907 42.3204 31.4688 41.907V40.3751C31.4688 39.1153 30.9683 37.9072 30.0775 37.0164C29.1867 36.1256 27.9786 35.6251 26.7188 35.6251H24.3367C23.2344 35.6251 22.1772 35.1872 21.3977 34.4078C20.6183 33.6283 20.1804 32.5712 20.1804 31.4689V30.0557C20.1804 27.3079 22.1849 24.9709 24.9019 24.5529L26.3887 24.3225C26.755 24.2662 27.0946 24.0971 27.3602 23.8387C27.6259 23.5803 27.8043 23.2455 27.8707 22.8809L28.1865 21.1376C28.3651 20.1609 28.8963 19.2838 29.6792 18.6731C30.4621 18.0623 31.4421 17.7605 32.4329 17.825C33.4237 17.8895 34.3563 18.3158 35.0534 19.0229C35.7506 19.7299 36.1636 20.6685 36.214 21.6601ZM29.6875 28.5001C30.0025 28.5001 30.3045 28.6252 30.5272 28.8479C30.7499 29.0706 30.875 29.3727 30.875 29.6876C30.875 30.0026 30.7499 30.3046 30.5272 30.5273C30.3045 30.75 30.0025 30.8751 29.6875 30.8751C29.3726 30.8751 29.0705 30.75 28.8478 30.5273C28.6251 30.3046 28.5 30.0026 28.5 29.6876C28.5 29.3727 28.6251 29.0706 28.8478 28.8479C29.0705 28.6252 29.3726 28.5001 29.6875 28.5001ZM28.5 46.3126C28.5 45.9977 28.6251 45.6956 28.8478 45.4729C29.0705 45.2502 29.3726 45.1251 29.6875 45.1251C30.0025 45.1251 30.3045 45.2502 30.5272 45.4729C30.7499 45.6956 30.875 45.9977 30.875 46.3126C30.875 46.6276 30.7499 46.9296 30.5272 47.1523C30.3045 47.375 30.0025 47.5001 29.6875 47.5001C29.3726 47.5001 29.0705 47.375 28.8478 47.1523C28.6251 46.9296 28.5 46.6276 28.5 46.3126ZM46.3125 33.2501C46.6275 33.2501 46.9295 33.3752 47.1522 33.5979C47.3749 33.8206 47.5 34.1227 47.5 34.4376C47.5 34.7526 47.3749 35.0546 47.1522 35.2773C46.9295 35.5 46.6275 35.6251 46.3125 35.6251C45.9976 35.6251 45.6955 35.5 45.4728 35.2773C45.2501 35.0546 45.125 34.7526 45.125 34.4376C45.125 34.1227 45.2501 33.8206 45.4728 33.5979C45.6955 33.3752 45.9976 33.2501 46.3125 33.2501Z" fill="white"/>
</svg>
